<svg xmlns="http://www.w3.org/2000/svg" viewBox="0 0 600 460" role="img" aria-label="Cama Rincón Gatuno">
<defs>
<pattern id="paws" width="56" height="56" patternUnits="userSpaceOnUse">
<circle cx="12" cy="20" r="4" fill="#E7C9A9" opacity=".45"/><circle cx="22" cy="14" r="3" fill="#E7C9A9" opacity=".45"/><circle cx="30" cy="20" r="3" fill="#E7C9A9" opacity=".45"/><path d="M18 28c5-7 13-5 14 2 1 6-13 8-17 4-2-2 0-4 3-6z" fill="#E7C9A9" opacity=".45"/>
</pattern>
<filter id="shadow" x="-20%" y="-20%" width="140%" height="140%"><feDropShadow dx="0" dy="18" stdDeviation="18" flood-color="#111111" flood-opacity=".12"/></filter>
</defs>
<rect width="600" height="460" rx="42" fill="#FFF7E8"/>
<rect x="18" y="18" width="564" height="424" rx="34" fill="url(#paws)" opacity=".8"/>
<circle cx="300" cy="204" r="126" fill="#FFFFFF" filter="url(#shadow)"/>
<circle cx="300" cy="204" r="93" fill="#E7C9A9" opacity=".16"/>
<text x="300" y="230" font-size="92" text-anchor="middle" dominant-baseline="middle">🐱</text>
<rect x="144" y="334" width="312" height="58" rx="29" fill="#111111"/>
<text x="300" y="371" font-family="Arial, sans-serif" font-size="22" font-weight="700" text-anchor="middle" fill="#FFFFFF">Cama Rincón Gatuno</text>
<circle cx="487" cy="74" r="24" fill="#F4A300"/><path d="M478 75l7 7 15-18" fill="none" stroke="#111111" stroke-width="6" stroke-linecap="round" stroke-linejoin="round"/>
</svg>